<?xml version="1.0" encoding="utf-8"?>
<!-- Generator: Adobe Illustrator 24.2.0, SVG Export Plug-In . SVG Version: 6.00 Build 0)  -->
<svg version="1.1" id="Layer_1" xmlns="http://www.w3.org/2000/svg" xmlns:xlink="http://www.w3.org/1999/xlink" x="0px" y="0px"
	 viewBox="0 0 1400 188" style="enable-background:new 0 0 1400 188;" xml:space="preserve">
<style type="text/css">
	.st0{fill:#FFFFFF;}
	.st1{fill-rule:evenodd;clip-rule:evenodd;fill:#FFFFFF;}
</style>
<path class="st0" d="M466,63.7c0,25.6-18.5,32.3-61.5,32.3H395c-31.2,0-56.9-3.7-61.5-28.3H369c2.7,5.7,10.8,7.1,33,7.1
	c23.7,0,30.2-1.7,30.5-8.7v-0.7c0-4.3-2.4-6.1-11.6-6.5l-43.3-1.5c-31.8-1.1-40.9-8-40.9-25.7v-1.3C336.7,6.9,354.2,0,396.6,0h6.7
	c30.8,0,56.2,4,61.1,29.5h-35.7c-2.5-6.4-10.6-8.3-30.4-8.3c-22.9,0-27.8,2.4-27.8,8.3v0.3c0,4.3,2.1,6.3,11.6,6.7l42.9,1.3
	c32.1,1.3,40.9,7.7,40.9,24.9V63.7z"/>
<path class="st1" d="M279.9,1.3l54.7,93.3h-37.9l-10.7-18.5h-64.5L211,94.6h-36.7l49-83.5l-11.9-9.9L279.9,1.3z M273.5,54.1
	l-19-33.1h-1.2l-19.1,33.1H273.5z"/>
<path class="st0" d="M579.4,14.8L563.2,1.3l49.5,0v93.3h-33.2V60.1h-67.6v34.5h-33.2V11.8L466.1,1.3l45.8,0v34.4h67.6V14.8z"/>
<path class="st0" d="M647.6,1.3c8.5,0,15.5,6.9,15.5,15.4v77.9h-33.2V8.3l-8.4-6.9L647.6,1.3z"/>
<path class="st0" d="M789,15.1L772.5,1.3l48.2,0v93.3h-50l-57.5-65.4h-1.2v65.4h-31.6V12.5L666.7,1.3l63.6,0l57.5,65.6h1.2V15.1z"/>
<path class="st0" d="M975.5,54.6C975.5,87,955,96,912.7,96h-14.3c-46.2,0-63.7-10.7-63.7-44.8v-6.5c0-33.9,17.5-44.6,63.7-44.6h14.3
	c39.5,0,55.7,7.9,62.3,29.5h-36.5c-4.9-4.9-10.3-6.3-31.3-6.3h-5.1c-28.9,0-33.6,5.9-33.6,22.9v3.7c0,17.1,4.7,22.8,33.6,22.8h5.1
	c23.5,0,33.4-2.4,34.5-12.9h-31.1l-25.9-21.3h90.7V54.6z"/>
<path class="st0" d="M1056.2,26.3h43.1V1.3H979.9v24.9h43.1v68.4h33.2V26.3z"/>
<path class="st1" d="M1245.6,50.9c0,34.3-17.7,45-63.8,45h-14.3c-46.2,0-63.7-10.8-63.7-45V45c0-34.3,17.5-45,63.7-45h14.3
	c46.2,0,63.8,10.8,63.8,45V50.9z M1137.6,49.6c0,17.1,4.6,23.2,34.8,23.2h4.4c30.2,0,34.9-6.1,34.9-23.2v-3.1
	c0-17.3-4.7-23.3-34.9-23.3h-4.4c-30.2,0-34.8,6-34.8,23.3V49.6z"/>
<path class="st0" d="M1368.4,14.2l-15.6-12.9l47.1,0v93.3h-50l-57.5-65.4h-1.2v65.4h-31.6V11.7l-12.5-10.4l62.6,0l57.5,65.6h1.2
	V14.2z"/>
<path class="st0" d="M43.5,1.3l15.2,65.3H60L79.8,1.3h38.8l21.5,65.3h1.2L154,10.9l-11.6-9.6l45.3,0l-25.3,93.3h-40.9L99.5,29.6
	L78,94.6H34.2L15.9,14.5L0,1.3L43.5,1.3z"/>
<path class="st0" d="M185.8,161.4h30.1v-8.6h-30.1v-9h30.1v-8.6H175v43.8h10.8V161.4z"/>
<path class="st0" d="M249.9,179.6c17.2,0,24.2-5.9,24.2-20.9v-3.4c0-15-7-20.9-24.2-20.9h-3.4c-17.2,0-24.2,5.9-24.2,20.9v3.4
	c0,15,7,20.9,24.2,20.9H249.9z M247.2,170.6c-11.8,0-14-4-14-12.6v-1.9c0-8.7,2.3-12.6,14-12.6h1.9c11.6,0,14,3.9,14,12.6v1.9
	c0,8.6-2.3,12.5-14,12.6H247.2z"/>
<path class="st0" d="M308.3,179.6c17.2,0,24.2-5.9,24.2-20.9v-3.4c0-15-7-20.9-24.2-20.9h-3.4c-17.2,0-24.2,5.9-24.2,20.9v3.4
	c0,15,7,20.9,24.2,20.9H308.3z M305.7,170.6c-11.8,0-14-4-14-12.6v-1.9c0-8.7,2.3-12.6,14-12.6h1.9c11.6,0,14,3.9,14,12.6v1.9
	c0,8.6-2.3,12.5-14,12.6H305.7z"/>
<path class="st0" d="M363.8,144.3h17.1v-9.2h-45v9.2h17v34.6h10.9V144.3z"/>
<path class="st0" d="M433.6,166c0-6.2-2.9-9-8.4-9.5v-0.4c5.1-0.7,7.6-3.6,7.6-9.6v-0.8c0-7.7-4.4-10.6-16.6-10.6h-29.4v43.8h30.4
	c12,0,16.4-3.5,16.4-11.8V166z M414.6,143.7c5.6,0,7.3,1,7.3,4.4v0.3c0,3.4-1.7,4.2-7,4.2h-17.3v-8.9H414.6z M414.4,160.5
	c6.4,0,8.3,0.8,8.3,4.7v0.3c0,3.8-1.9,4.8-8.2,4.8h-16.9v-9.8H414.4z"/>
<path class="st0" d="M473.8,135.1h-16.5l-20.6,43.8h11.9l4.6-9.9h24.6l4.5,9.9h12.2L473.8,135.1z M465.6,143l8,17.4h-16.5l8.1-17.4
	H465.6z"/>
<path class="st0" d="M538.3,169.7h-27.6v-34.6h-10.8v43.8h38.4V169.7z"/>
<path class="st0" d="M582.9,169.7h-27.6v-34.6h-10.8v43.8h38.4V169.7z"/>
<path class="st0" d="M629.7,144.3h17.1v-9.2h-45v9.2h17v34.6h10.9V144.3z"/>
<path class="st0" d="M693.5,170.3h-30.1v-9h30.1v-8.6h-30.1v-9h30.1v-8.6h-40.9v43.8h40.9V170.3z"/>
<path class="st0" d="M735.3,135.1h-16.5l-20.6,43.8h11.9l4.6-9.9h24.6l4.5,9.9H756L735.3,135.1z M727.2,143l8,17.4h-16.5l8.1-17.4
	H727.2z"/>
<path class="st0" d="M826.2,135.1h-17.8l-13.8,30.1h-0.4l-13.7-30.1h-18.9v43.8h10.8v-34.8h0.4l15.9,34.8h10.3l16.1-34.8h0.4v34.8
	h10.8V135.1z"/>
<path class="st0" d="M842.4,186.1c2.9-4.6,3.7-7.4,3.7-11.2v-6.2h-11.6v10.2h4.9v0.6l-4.7,8.2h6.7L842.4,186.1z"/>
<path class="st0" d="M919.6,170.3h-30.1v-9h30.1v-8.6h-30.1v-9h30.1v-8.6h-40.9v43.8h40.9V170.3z"/>
<path class="st0" d="M951,179.6c14.5,0,22.8-3.5,22.8-14.5v-0.6c0-7.8-4.5-11.3-15.8-11.8l-12.9-0.5c-5.5-0.2-6.9-1.5-6.9-4.3v-0.2
	c0-3.4,2.6-4.9,11-4.9c7,0,11.1,1,12.3,4.8h11.5c-1.6-9.9-11-13.2-22.7-13.2h-1.5c-14.7,0-21.7,4-21.7,14v0.4
	c0,7.8,4.6,11.6,15.9,11.9l12.9,0.4c5.4,0.3,6.9,1.6,6.9,4.4v0.5c0,3.9-3.9,5.1-12.2,5.1c-7.3,0-11.8-0.6-13.2-4.4h-11.5
	c1.6,10,11.1,12.7,23.4,12.7H951z"/>
<path class="st0" d="M1005.2,144.3h17.1v-9.2h-45v9.2h17v34.6h10.9V144.3z"/>
<path class="st0" d="M1029.2,178.9v-10.2h-11.4v10.2H1029.2z"/>
<path class="st0" d="M1086.8,135.1h-13.7l-13.4,6.3v10.8l16.3-8.8h0.4v35.4h10.4V135.1z"/>
<path class="st0" d="M1114.5,134.5c-13,0-19.8,4.8-19.8,14.7v1c0,9.1,4.8,13.5,19,13.5c8.7,0,12.7-1.6,14.4-4.6h0.4v1.1
	c0,9-3,11.1-12.1,11.1c-3.6,0-6.2-0.2-7.8-0.8c-1.6-0.6-2.6-1.5-3.2-2.9h-10.7c1.8,8.2,7.9,12.1,20.7,12.1h2.4
	c13.8,0,21-4.6,21-21.2v-3.3c0-16.3-7.2-20.7-21.2-20.7H1114.5z M1116.8,142.7c4.4,0,7.4,0.5,9.1,1.5c1.7,0.9,2.5,2.6,2.5,4.8v0.7
	c0,4.3-2.8,6.3-11.6,6.3c-8.8,0-11.6-2-11.6-6.3v-0.7C1105.2,144.5,1108,142.7,1116.8,142.7z"/>
<path class="st0" d="M1168.7,179.6c14.5,0,20.9-4.3,20.9-13.5v-0.6c0-6.3-2.6-9.4-8.3-10.2v-0.5c5.1-0.8,7.3-3.6,7.3-8.8v-0.4
	c0-7.3-6.8-11-20.3-11h-2.1c-11.8,0-18.5,3.6-20.4,12.8h10.6c1.1-3.5,4.6-4.4,11.1-4.4c7.5,0,10.5,1.3,10.5,4.9v0.3
	c0,2.9-1.8,4.2-6.4,4.2h-13.2v8.4h13.5c5.2,0,7.1,1.3,7.1,4.6v0.4c0,3.8-3.1,5.4-11.7,5.4c-7.5,0-11.3-1-12.4-5h-10.7
	c1.4,10,9.5,13.5,21.7,13.5H1168.7z"/>
<path class="st0" d="M1239.4,170.5h-33.9v-1.1c0-2.1,0.4-3.6,1.3-4.4c0.9-0.9,2.7-1.5,5.3-1.9l14-1.9c10.3-1.5,13.3-5.8,13.3-13.3
	v-0.7c0-8.6-6.5-12.7-20.3-12.7h-2.3c-11.5,0-19,2.9-20.8,13h10.6c1.1-3.5,4.1-4.6,11.6-4.6c8,0,10.7,1.4,10.7,4.9v0.3
	c0,3.1-1.4,4.3-6.6,5l-12,1.6c-11.8,1.8-15.2,5.8-15.2,16.3v7.8h44.2V170.5z"/>
</svg>
