<svg xmlns="http://www.w3.org/2000/svg" xmlns:xlink="http://www.w3.org/1999/xlink" width="280" height="40" viewBox="0 0 280 40">
  <defs>
    <clipPath id="clip-Custom_Size_1">
      <rect width="280" height="40"/>
    </clipPath>
  </defs>
  <g id="Custom_Size_1" data-name="Custom Size – 1" clip-path="url(#clip-Custom_Size_1)">
    <rect width="280" height="40" fill="#fff"/>
    <g id="Group_1" data-name="Group 1" transform="translate(0 1.284)">
      <path id="Path_3" data-name="Path 3" d="M359.947,12.715c0,5.11-3.693,6.447-12.276,6.447h-1.9c-6.228,0-11.357-.739-12.276-5.649h7.086c.539,1.138,2.156,1.417,6.587,1.417,4.731,0,6.028-.339,6.088-1.737v-.14c0-.858-.479-1.218-2.315-1.3l-8.643-.3c-6.347-.22-8.164-1.6-8.164-5.13V6.068c0-4.691,3.493-6.068,11.956-6.068h1.337c6.148,0,11.218.8,12.2,5.888H352.5c-.5-1.277-2.116-1.657-6.068-1.657-4.571,0-5.549.479-5.549,1.657v.06c0,.858.419,1.257,2.315,1.337l8.563.259c6.407.259,8.164,1.537,8.164,4.97v.2Z" transform="translate(-266.932)" fill="#5a1414"/>
      <path id="Path_4" data-name="Path 4" d="M195.378,1.22,206.3,19.843h-7.565L196.6,16.15H183.721l-2.1,3.693H174.3l9.781-16.667L181.705,1.2ZM194.1,11.759l-3.792-6.607h-.24l-3.812,6.607Z" transform="translate(-139.509 -0.96)" fill="#5a1414" fill-rule="evenodd"/>
      <path id="Path_5" data-name="Path 5" d="M488.715,3.995,485.481,1.3h9.88V19.923h-6.627V13.037H475.242v6.886h-6.627V3.4L466.1,1.3h9.142V8.166h13.493V3.995Z" transform="translate(-373.065 -1.041)" fill="#5a1414"/>
      <path id="Path_6" data-name="Path 6" d="M626.71,1.3A3.092,3.092,0,0,1,629.8,4.374V19.923h-6.627V2.7L621.5,1.32Z" transform="translate(-497.447 -1.041)" fill="#5a1414"/>
      <path id="Path_7" data-name="Path 7" d="M691.111,4.055,687.818,1.3h9.621V19.923h-9.98L675.982,6.869h-.239V19.923h-6.307V3.536L666.7,1.3h12.695l11.477,13.094h.24Z" transform="translate(-533.625 -1.041)" fill="#5a1414"/>
      <path id="Path_8" data-name="Path 8" d="M862.8,10.978c0,6.467-4.092,8.264-12.535,8.264h-2.854c-9.222,0-12.715-2.136-12.715-8.942V9c0-6.767,3.493-8.9,12.715-8.9h2.854c7.884,0,11.118,1.577,12.435,5.888h-7.286c-.978-.978-2.056-1.257-6.248-1.257h-1.018c-5.768,0-6.707,1.178-6.707,4.571v.739c0,3.413.938,4.551,6.707,4.551h1.018c4.691,0,6.667-.479,6.886-2.575H849.85l-5.17-4.252h18.1v3.214Z" transform="translate(-668.091 -0.08)" fill="#5a1414"/>
      <path id="Path_9" data-name="Path 9" d="M995.13,6.29h8.6V1.3H979.9V6.27h8.6V19.923h6.627Z" transform="translate(-784.309 -1.041)" fill="#5a1414"/>
      <path id="Path_10" data-name="Path 10" d="M1132.1,10.16c0,6.846-3.533,8.982-12.735,8.982h-2.854c-9.222,0-12.715-2.156-12.715-8.982V8.982c0-6.846,3.493-8.982,12.715-8.982h2.854c9.222,0,12.735,2.156,12.735,8.982ZM1110.547,9.9c0,3.413.918,4.631,6.946,4.631h.878c6.028,0,6.966-1.218,6.966-4.631V9.282c0-3.453-.938-4.651-6.966-4.651h-.878c-6.028,0-6.946,1.2-6.946,4.651Z" transform="translate(-883.478 0)" fill="#5a1414" fill-rule="evenodd"/>
      <path id="Path_11" data-name="Path 11" d="M1271.312,3.875,1268.2,1.3h9.4V19.923h-9.98L1256.142,6.869h-.239V19.923H1249.6V3.376L1247.1,1.3h12.5l11.477,13.094h.24Z" transform="translate(-998.175 -1.041)" fill="#5a1414"/>
      <path id="Path_12" data-name="Path 12" d="M8.683,1.3l3.034,13.034h.259L15.928,1.3h7.745l4.291,13.034h.24L30.739,3.216,28.423,1.3h9.042l-5.05,18.623H24.252L19.86,6.949,15.569,19.923H6.826L3.174,3.935,0,1.3Z" transform="translate(0 -1.041)" fill="#5a1414"/>
      <path id="Path_13" data-name="Path 13" d="M177.156,140.43h6.008v-1.717h-6.008v-1.8h6.008V135.2H175v8.743h2.156Z" transform="translate(-140.069 -108.214)" fill="#5a1414"/>
      <path id="Path_14" data-name="Path 14" d="M227.809,143.422c3.433,0,4.83-1.178,4.83-4.172v-.679c0-2.994-1.4-4.172-4.83-4.172h-.679c-3.433,0-4.83,1.178-4.83,4.172v.679c0,2.994,1.4,4.172,4.83,4.172Zm-.539-1.8c-2.355,0-2.794-.8-2.794-2.515v-.379c0-1.737.459-2.515,2.794-2.515h.379c2.315,0,2.794.778,2.794,2.515v.379c0,1.717-.459,2.5-2.794,2.515Z" transform="translate(-177.928 -107.573)" fill="#5a1414"/>
      <path id="Path_15" data-name="Path 15" d="M286.209,143.422c3.433,0,4.83-1.178,4.83-4.172v-.679c0-2.994-1.4-4.172-4.83-4.172h-.679c-3.433,0-4.83,1.178-4.83,4.172v.679c0,2.994,1.4,4.172,4.83,4.172Zm-.519-1.8c-2.355,0-2.794-.8-2.794-2.515v-.379c0-1.737.459-2.515,2.794-2.515h.379c2.315,0,2.794.778,2.794,2.515v.379c0,1.717-.459,2.5-2.794,2.515Z" transform="translate(-224.671 -107.573)" fill="#5a1414"/>
      <path id="Path_16" data-name="Path 16" d="M341.469,136.936h3.413V135.1H335.9v1.836h3.393v6.906h2.176Z" transform="translate(-268.853 -108.134)" fill="#5a1414"/>
      <path id="Path_17" data-name="Path 17" d="M396.141,141.268a1.649,1.649,0,0,0-1.677-1.9v-.08c1.018-.14,1.517-.719,1.517-1.916v-.16c0-1.537-.878-2.116-3.313-2.116H386.8v8.743h6.068c2.4,0,3.273-.7,3.273-2.355Zm-3.792-4.451c1.118,0,1.457.2,1.457.878v.06c0,.679-.339.838-1.4.838h-3.453v-1.776Zm-.04,3.353c1.277,0,1.657.16,1.657.938v.06c0,.758-.379.958-1.637.958h-3.373V140.17Z" transform="translate(-309.594 -108.134)" fill="#5a1414"/>
      <path id="Path_18" data-name="Path 18" d="M444.105,135.1h-3.293l-4.112,8.743h2.375l.918-1.976h4.91l.9,1.976h2.435Zm-1.637,1.577,1.6,3.473h-3.293l1.617-3.473Z" transform="translate(-349.533 -108.134)" fill="#5a1414"/>
      <path id="Path_19" data-name="Path 19" d="M507.565,142.006h-5.509V135.1H499.9v8.743h7.665Z" transform="translate(-400.118 -108.134)" fill="#5a1414"/>
      <path id="Path_20" data-name="Path 20" d="M552.165,142.006h-5.509V135.1H544.5v8.743h7.665Z" transform="translate(-435.816 -108.134)" fill="#5a1414"/>
      <path id="Path_21" data-name="Path 21" d="M607.369,136.936h3.413V135.1H601.8v1.836h3.393v6.906h2.176Z" transform="translate(-481.679 -108.134)" fill="#5a1414"/>
      <path id="Path_22" data-name="Path 22" d="M660.764,142.126h-6.008v-1.8h6.008v-1.717h-6.008v-1.8h6.008V135.1H652.6v8.743h8.164Z" transform="translate(-522.339 -108.134)" fill="#5a1414"/>
      <path id="Path_23" data-name="Path 23" d="M705.605,135.1h-3.294l-4.112,8.743h2.375l.918-1.976h4.91l.9,1.976h2.435Zm-1.617,1.577,1.6,3.473h-3.293l1.617-3.473Z" transform="translate(-558.837 -108.134)" fill="#5a1414"/>
      <path id="Path_24" data-name="Path 24" d="M774.494,135.1h-3.553l-2.755,6.008h-.08l-2.734-6.008H761.6v8.743h2.156V136.9h.08l3.174,6.946h2.056l3.214-6.946h.08v6.946h2.156V135.1Z" transform="translate(-609.582 -108.134)" fill="#5a1414"/>
      <path id="Path_25" data-name="Path 25" d="M836.077,172.173a3.753,3.753,0,0,0,.739-2.236V168.7H834.5v2.036h.978v.12l-.938,1.637h1.337Z" transform="translate(-667.931 -135.027)" fill="#5a1414"/>
      <path id="Path_26" data-name="Path 26" d="M886.864,142.126h-6.008v-1.8h6.008v-1.717h-6.008v-1.8h6.008V135.1H878.7v8.743h8.164Z" transform="translate(-703.309 -108.134)" fill="#5a1414"/>
      <path id="Path_27" data-name="Path 27" d="M930.91,143.422c2.894,0,4.551-.7,4.551-2.894v-.12c0-1.557-.9-2.256-3.154-2.355l-2.575-.1c-1.1-.04-1.377-.3-1.377-.858v-.04c0-.679.519-.978,2.2-.978,1.4,0,2.216.2,2.455.958h2.3c-.319-1.976-2.2-2.635-4.531-2.635h-.3c-2.934,0-4.331.8-4.331,2.794v.08c0,1.557.918,2.315,3.174,2.375l2.575.08c1.078.06,1.377.319,1.377.878v.1c0,.778-.778,1.018-2.435,1.018-1.457,0-2.355-.12-2.635-.878h-2.3c.319,2,2.216,2.535,4.671,2.535h.339Z" transform="translate(-741.088 -107.573)" fill="#5a1414"/>
      <path id="Path_28" data-name="Path 28" d="M982.869,136.936h3.413V135.1H977.3v1.836h3.393v6.906h2.176Z" transform="translate(-782.228 -108.134)" fill="#5a1414"/>
      <path id="Path_29" data-name="Path 29" d="M1020.075,170.736V168.7H1017.8v2.036Z" transform="translate(-814.644 -135.027)" fill="#5a1414"/>
      <path id="Path_30" data-name="Path 30" d="M1065.109,135.1h-2.735l-2.675,1.258v2.156l3.254-1.757h.08v7.066h2.076Z" transform="translate(-848.181 -108.134)" fill="#5a1414"/>
      <path id="Path_31" data-name="Path 31" d="M1098.652,134.5c-2.595,0-3.952.958-3.952,2.934v.2c0,1.816.958,2.695,3.792,2.695,1.737,0,2.535-.319,2.874-.918h.08v.22c0,1.8-.6,2.216-2.415,2.216a4.966,4.966,0,0,1-1.557-.16,1.027,1.027,0,0,1-.639-.579H1094.7c.359,1.637,1.577,2.415,4.132,2.415h.479c2.755,0,4.192-.918,4.192-4.232v-.659c0-3.254-1.437-4.132-4.231-4.132Zm.459,1.637a3.864,3.864,0,0,1,1.816.3,1,1,0,0,1,.5.958v.14c0,.858-.559,1.257-2.315,1.257s-2.315-.4-2.315-1.257v-.14C1096.8,136.5,1097.355,136.137,1099.111,136.137Z" transform="translate(-876.194 -107.653)" fill="#5a1414"/>
      <path id="Path_32" data-name="Path 32" d="M1149.09,143.582c2.894,0,4.172-.858,4.172-2.695v-.12a1.752,1.752,0,0,0-1.657-2.036v-.1a1.544,1.544,0,0,0,1.457-1.757v-.08c0-1.457-1.357-2.2-4.052-2.2h-.419c-2.355,0-3.693.719-4.072,2.555h2.116c.22-.7.918-.878,2.216-.878,1.5,0,2.1.259,2.1.978v.06c0,.579-.359.838-1.277.838h-2.635v1.677h2.695c1.038,0,1.417.259,1.417.918v.08c0,.758-.619,1.078-2.335,1.078-1.5,0-2.255-.2-2.475-1H1144.2c.279,2,1.9,2.695,4.331,2.695h.559Z" transform="translate(-915.814 -107.733)" fill="#5a1414"/>
      <path id="Path_33" data-name="Path 33" d="M1203.943,141.686h-6.767v-.22a1.156,1.156,0,0,1,.26-.878,1.987,1.987,0,0,1,1.058-.379l2.795-.379c2.056-.3,2.655-1.158,2.655-2.655v-.14c0-1.717-1.3-2.535-4.052-2.535h-.459c-2.3,0-3.793.579-4.152,2.595h2.116c.22-.7.818-.918,2.315-.918,1.6,0,2.136.279,2.136.978v.06c0,.619-.28.858-1.317,1l-2.4.319c-2.355.359-3.034,1.158-3.034,3.254v1.557h8.822v-1.657Z" transform="translate(-956.554 -107.653)" fill="#5a1414"/>
    </g>
  </g>
</svg>
